<svg width="21" height="21" viewBox="0 0 21 21" fill="none" xmlns="http://www.w3.org/2000/svg">
<path d="M16.275 9.1875C13.6635 9.1875 11.55 11.8293 11.55 15.0938C11.55 18.3582 13.6635 21 16.275 21C18.8865 21 21 18.3582 21 15.0938C21 11.8293 18.8865 9.1875 16.275 9.1875ZM18.375 15.3517C18.375 15.5708 18.2316 15.75 18.0564 15.75H16.0689C15.8937 15.75 15.7503 15.5708 15.7503 15.3517V12.2112C15.7503 11.9921 15.8937 11.8129 16.0689 11.8129H16.4814C16.6566 11.8129 16.8 11.9921 16.8 12.2112V14.4375H18.0564C18.2316 14.4375 18.375 14.6167 18.375 14.8358V15.3517ZM16.275 7.875C16.4522 7.875 16.6267 7.88854 16.8 7.90822V5.90625C16.8 4.85625 16.065 3.9375 15.225 3.9375H12.6V1.96875C12.6 0.91875 11.865 0 11.025 0H5.775C4.935 0 4.2 0.91875 4.2 1.96875V3.9375H1.575C0.735 3.9375 0 4.85625 0 5.90625V9.1875H12.9649C13.9033 8.3635 15.0435 7.875 16.275 7.875ZM10.5 3.9375H6.3V2.625H10.5V3.9375ZM10.7238 13.125H6.825C6.53494 13.125 6.3 12.8313 6.3 12.4688V10.5H0V16.4062C0 17.4562 0.735 18.375 1.575 18.375H11.1375C10.733 17.389 10.5 16.2758 10.5 15.0938C10.5 14.4104 10.5814 13.7517 10.7238 13.125Z" fill="#FF0000"/>
</svg>
