<svg width="17" height="16" viewBox="0 0 17 16" fill="none" xmlns="http://www.w3.org/2000/svg">
<path d="M8.86245 5.82159C8.29793 5.82159 7.76929 6.02903 7.36904 6.40813C6.97067 6.78724 6.74977 7.28794 6.74977 7.82263C6.74977 8.35731 6.97067 8.85801 7.36904 9.23712C7.76929 9.61444 8.29793 9.82366 8.86245 9.82366C9.42696 9.82366 9.9556 9.61444 10.3559 9.23712C10.7542 8.85801 10.9751 8.35731 10.9751 7.82263C10.9751 7.28794 10.7542 6.78724 10.3559 6.40813C10.1604 6.22154 9.92767 6.07361 9.6713 5.97292C9.41492 5.87223 9.13998 5.82079 8.86245 5.82159ZM16.6467 10.0329L15.4119 9.03326C15.4705 8.6935 15.5007 8.34658 15.5007 8.00145C15.5007 7.65632 15.4705 7.30761 15.4119 6.96964L16.6467 5.97002C16.74 5.89439 16.8067 5.79365 16.8381 5.68121C16.8694 5.56878 16.8639 5.44996 16.8223 5.34056L16.8053 5.29406C16.4655 4.39403 15.9563 3.55976 15.3024 2.83167L15.2684 2.79411C15.189 2.70569 15.0832 2.64213 14.9649 2.6118C14.8466 2.58147 14.7214 2.58581 14.6057 2.62423L13.0727 3.14103C12.5063 2.70113 11.8757 2.35421 11.1922 2.1128L10.8958 0.594588C10.8735 0.480216 10.8149 0.374997 10.7279 0.292909C10.6409 0.21082 10.5296 0.155749 10.4087 0.135012L10.3577 0.12607C9.37598 -0.0420235 8.34136 -0.0420235 7.3596 0.12607L7.30862 0.135012C7.18778 0.155749 7.07647 0.21082 6.98946 0.292909C6.90246 0.374997 6.84388 0.480216 6.82152 0.594588L6.52321 2.11995C5.84623 2.36329 5.21557 2.70936 4.65598 3.14461L3.11159 2.62423C2.99598 2.5855 2.87067 2.58101 2.7523 2.61136C2.63393 2.6417 2.52811 2.70544 2.4489 2.79411L2.41492 2.83167C1.76222 3.56053 1.25318 4.3946 0.912071 5.29406L0.895079 5.34056C0.810119 5.56409 0.879975 5.81444 1.07066 5.97002L2.32052 6.98037C2.26199 7.31656 2.23367 7.6599 2.23367 7.99966C2.23367 8.343 2.26199 8.68634 2.32052 9.01896L1.07444 10.0293C0.981164 10.1049 0.914406 10.2057 0.883041 10.3181C0.851677 10.4305 0.857193 10.5494 0.898855 10.6588L0.915847 10.7053C1.25758 11.6047 1.76167 12.4363 2.4187 13.1677L2.45268 13.2052C2.53208 13.2936 2.6379 13.3572 2.7562 13.3875C2.8745 13.4178 2.99972 13.4135 3.11537 13.3751L4.65975 12.8547C5.22238 13.2928 5.8492 13.6397 6.52699 13.8794L6.82529 15.4047C6.84766 15.5191 6.90623 15.6243 6.99324 15.7064C7.08024 15.7885 7.19156 15.8436 7.3124 15.8643L7.36337 15.8733C8.35479 16.0423 9.3701 16.0423 10.3615 15.8733L10.4125 15.8643C10.5333 15.8436 10.6446 15.7885 10.7317 15.7064C10.8187 15.6243 10.8772 15.5191 10.8996 15.4047L11.196 13.8865C11.8795 13.6433 12.5101 13.2982 13.0765 12.8583L14.6095 13.3751C14.7251 13.4138 14.8504 13.4183 14.9688 13.388C15.0872 13.3576 15.193 13.2939 15.2722 13.2052L15.3062 13.1677C15.9632 12.4327 16.4673 11.6047 16.809 10.7053L16.826 10.6588C16.9072 10.437 16.8374 10.1885 16.6467 10.0329ZM8.86245 10.9663C7.0292 10.9663 5.54334 9.559 5.54334 7.82263C5.54334 6.08625 7.0292 4.67891 8.86245 4.67891C10.6957 4.67891 12.1816 6.08625 12.1816 7.82263C12.1816 9.559 10.6957 10.9663 8.86245 10.9663Z" fill="white"/>
</svg>
